HIERARCHY
ROOT Hips
{
	OFFSET 0.00000 0.00000 0.00000
	CHANNELS 6 Xposition Yposition Zposition Zrotation Yrotation Xrotation 
	JOINT LHipJoint
	{
		OFFSET 0 0 0
		CHANNELS 3 Zrotation Yrotation Xrotation
		JOINT LeftUpLeg
		{
			OFFSET 1.62329 -1.80800 0.67318
			CHANNELS 3 Zrotation Yrotation Xrotation
			JOINT LeftLeg
			{
				OFFSET 2.57139 -7.06484 0.00000
				CHANNELS 3 Zrotation Yrotation Xrotation
				JOINT LeftFoot
				{
					OFFSET 2.52017 -6.92413 0.00000
					CHANNELS 3 Zrotation Yrotation Xrotation
					JOINT LeftToeBase
					{
						OFFSET 0.23295 -0.64001 2.10214
						CHANNELS 3 Zrotation Yrotation Xrotation
						End Site
						{
							OFFSET 0.00000 -0.00000 1.10139
						}
					}
				}
			}
		}
	}
	JOINT RHipJoint
	{
		OFFSET 0 0 0
		CHANNELS 3 Zrotation Yrotation Xrotation
		JOINT RightUpLeg
		{
			OFFSET -1.48061 -1.80800 0.67318
			CHANNELS 3 Zrotation Yrotation Xrotation
			JOINT RightLeg
			{
				OFFSET -2.63258 -7.23296 0.00000
				CHANNELS 3 Zrotation Yrotation Xrotation
				JOINT RightFoot
				{
					OFFSET -2.54779 -7.00000 0.00000
					CHANNELS 3 Zrotation Yrotation Xrotation
					JOINT RightToeBase
					{
						OFFSET -0.23067 -0.63376 2.12161
						CHANNELS 3 Zrotation Yrotation Xrotation
						End Site
						{
							OFFSET -0.00000 -0.00000 1.11000
						}
					}
				}
			}
		}
	}
	JOINT LowerBack
	{
		OFFSET 0 0 0
		CHANNELS 3 Zrotation Yrotation Xrotation
		JOINT Spine
		{
			OFFSET -0.02108 2.07573 -0.16981
			CHANNELS 3 Zrotation Yrotation Xrotation
			JOINT Spine1
			{
				OFFSET 0.05070 2.08439 -0.03141
				CHANNELS 3 Zrotation Yrotation Xrotation
				JOINT Neck
				{
					OFFSET 0 0 0
					CHANNELS 3 Zrotation Yrotation Xrotation
					JOINT Neck1
					{
						OFFSET -0.10731 1.60408 0.31370
						CHANNELS 3 Zrotation Yrotation Xrotation
						JOINT Head
						{
							OFFSET 0.08411 1.65679 -0.30822
							CHANNELS 3 Zrotation Yrotation Xrotation
							End Site
							{
								OFFSET 0.03911 1.69149 -0.14146
							}
						}
					}
				}
				JOINT LeftShoulder
				{
					OFFSET 0 0 0
					CHANNELS 3 Zrotation Yrotation Xrotation
					JOINT LeftArm
					{
						OFFSET 3.52315 0.73219 -0.54694
						CHANNELS 3 Zrotation Yrotation Xrotation
						JOINT LeftForeArm
						{
							OFFSET 5.32462 -0.00000 -0.00000
							CHANNELS 3 Zrotation Yrotation Xrotation
							JOINT LeftHand
							{
								OFFSET 3.48402 -0.00000 -0.00000
								CHANNELS 3 Zrotation Yrotation Xrotation
								JOINT LeftFingerBase
								{
									OFFSET 0 0 0
									CHANNELS 3 Zrotation Yrotation Xrotation
									JOINT LeftHandIndex1
									{
										OFFSET 0.57248 -0.00000 -0.00000
										CHANNELS 3 Zrotation Yrotation Xrotation
										End Site
										{
											OFFSET 0.46154 -0.00000 -0.00000
										}
									}
								}
								JOINT LThumb
								{
									OFFSET 0 0 0
									CHANNELS 3 Zrotation Yrotation Xrotation
									End Site
									{
										OFFSET 0.46859 -0.00000 0.46859
									}
								}
							}
						}
					}
				}
				JOINT RightShoulder
				{
					OFFSET 0 0 0
					CHANNELS 3 Zrotation Yrotation Xrotation
					JOINT RightArm
					{
						OFFSET -3.41766 0.93592 -0.10019
						CHANNELS 3 Zrotation Yrotation Xrotation
						JOINT RightForeArm
						{
							OFFSET -5.33589 -0.00000 -0.00000
							CHANNELS 3 Zrotation Yrotation Xrotation
							JOINT RightHand
							{
								OFFSET -3.64134 -0.00000 -0.00000
								CHANNELS 3 Zrotation Yrotation Xrotation
								JOINT RightFingerBase
								{
									OFFSET 0 0 0
									CHANNELS 3 Zrotation Yrotation Xrotation
									JOINT RightHandIndex1
									{
										OFFSET -0.73481 -0.00000 -0.00000
										CHANNELS 3 Zrotation Yrotation Xrotation
										End Site
										{
											OFFSET -0.59242 -0.00000 -0.00000
										}
									}
								}
								JOINT RThumb
								{
									OFFSET 0 0 0
									CHANNELS 3 Zrotation Yrotation Xrotation
									End Site
									{
										OFFSET -0.60147 -0.00000 0.60147
									}
								}
							}
						}
					}
				}
			}
		}
	}
}
MOTION
Frames: 11
Frame Time: .0083333
1.5151 30.6900 -2.1468 -181.0980 -20.6394 -165.0890 0.0000 0.0000 0.0000 -25.0150 -9.0044 -55.8055 12.7900 18.7050 68.4721 1.8858 -14.1919 -25.1243 0.0015 0.2493 0.6848 0.0000 0.0000 0.0000 16.4466 5.4570 -21.0205 -0.8942 -6.0272 16.8634 1.8404 -23.1895 -10.0510 -0.9704 -6.2716 17.5745 -6.3540 -2.2584 9.4802 0.1767 -3.7466 1.3874 4.2044 -1.8264 -3.4478 -9.8815 2.2867 -18.6272 2.0249 3.0024 38.5689 2.9109 -1.0211 16.9658 0.0000 0.0000 0.0000 -88.9608 -43.9546 56.0990 66.7088 -57.8476 -39.9750 -0.0000 0.0000 -14.8317 30.2624 37.2215 19.4400 -7.1250 0.0000 -0.0000 -6.1742 71.2254 -3.8632 0.0000 0.0000 0.0000 77.4137 12.0644 22.4859 -88.1685 59.9873 -58.4139 0.0000 -0.0000 -10.6983 -33.6719 4.6995 -3.1243 7.1250 -0.0000 -0.0000 -5.2253 -24.3403 -2.6176
1.4935 30.7280 -2.1688 -181.1070 -20.9183 -165.2380 0.0000 0.0000 0.0000 -25.0624 -9.3103 -54.9496 12.5422 18.6106 67.6975 1.9143 -13.8984 -25.2506 0.0035 0.3822 1.0503 0.0000 0.0000 0.0000 16.5402 5.0368 -21.1979 -0.9999 -6.3635 17.8428 1.7315 -22.6114 -10.9132 -0.9917 -6.3381 17.7686 -6.2314 -2.4047 9.5144 0.1196 -3.9345 1.4256 4.0970 -1.9243 -3.4173 -9.7254 2.2166 -18.9143 1.9323 2.9674 38.4753 2.8427 -1.0080 16.9985 0.0000 0.0000 0.0000 -88.9085 -43.5253 56.0084 66.5098 -57.8088 -39.8066 -0.0000 0.0000 -14.6803 30.0430 36.8219 19.1175 -7.1250 0.0000 -0.0000 -6.0966 70.7512 -3.7504 0.0000 0.0000 0.0000 77.6282 12.1113 22.5495 -86.9262 59.9643 -57.3383 0.0000 -0.0000 -10.7955 -33.5867 5.0464 -3.3430 7.1250 -0.0000 -0.0000 -5.1309 -23.9324 -2.6184
1.4743 30.7650 -2.1852 -181.1670 -20.7537 -165.0250 0.0000 0.0000 0.0000 -25.1775 -9.4687 -54.5893 12.3037 18.5161 66.9482 1.9434 -13.5937 -25.3828 0.0063 0.5138 1.4119 0.0000 0.0000 0.0000 16.4770 4.8020 -21.8353 -1.1101 -6.6940 18.8118 1.6495 -22.1455 -11.0985 -0.9652 -6.2552 17.5268 -6.4039 -2.4272 9.2877 0.1131 -3.9621 1.2372 4.1823 -1.9250 -3.4737 -9.7686 2.2228 -18.9355 1.9637 2.9969 38.4185 2.8693 -0.9934 16.9688 0.0000 0.0000 0.0000 -88.9751 -42.8665 55.8561 66.6380 -57.8338 -39.9151 -0.0000 0.0000 -14.9147 30.0130 36.7019 19.0464 -7.1250 0.0000 -0.0000 -6.0227 70.6205 -3.6873 0.0000 0.0000 0.0000 77.7669 11.8355 22.6273 -85.9967 59.9394 -56.5337 0.0000 -0.0000 -10.9326 -33.4992 5.4706 -3.6105 7.1250 -0.0000 -0.0000 -5.0277 -23.4334 -2.6233
1.4549 30.8050 -2.1990 -181.1100 -20.4838 -164.9600 0.0000 0.0000 0.0000 -25.2170 -9.4411 -54.1927 12.0764 18.4227 66.2306 1.9799 -13.2169 -25.5533 0.0080 0.5763 1.5836 0.0000 0.0000 0.0000 16.5194 4.5603 -22.4082 -1.2327 -7.0410 19.8369 1.5658 -21.6222 -10.9063 -0.8761 -5.9672 16.6894 -6.5423 -2.3688 9.1728 0.1612 -3.8853 1.0695 4.3010 -1.8729 -3.5813 -9.9460 2.1883 -18.6801 2.0496 2.9844 38.0932 2.9277 -0.9802 16.7263 -0.0000 0.0000 0.0000 -89.2657 -42.2193 55.9720 66.3103 -57.7695 -39.6377 -0.0000 0.0000 -14.7161 30.3045 35.8269 18.8861 -7.1250 0.0000 -0.0000 -4.7879 69.8283 -2.8454 -0.0000 0.0000 0.0000 77.7704 11.5875 22.6207 -84.8953 59.9013 -55.5807 0.0000 -0.0000 -11.0384 -33.4248 5.9043 -3.8840 7.1250 -0.0000 -0.0000 -4.9329 -22.9234 -2.6314
1.4358 30.8453 -2.2120 -180.8890 -20.3159 -165.0850 0.0000 0.0000 0.0000 -25.0907 -9.3455 -53.6796 11.8609 18.3312 65.5472 1.9976 -13.0755 -25.6432 0.0149 0.7894 2.1696 0.0000 0.0000 0.0000 16.7660 4.3459 -22.8118 -1.3693 -7.4057 20.9231 1.4737 -20.9998 -10.4000 -0.7316 -5.4649 15.2394 -6.3601 -2.3029 9.1514 0.1134 -3.7796 1.0575 4.1373 -1.8216 -3.6095 -9.9725 1.9836 -18.6773 2.1624 2.7328 37.6827 2.9357 -1.0180 16.5288 0.0000 0.0000 0.0000 -89.3954 -41.9051 56.1956 65.9471 -57.6969 -39.3307 -0.0000 0.0000 -14.7008 30.5612 35.5488 18.9476 -7.1250 0.0000 -0.0000 -4.1773 69.6263 -2.4632 0.0000 0.0000 0.0000 77.9934 11.6349 22.4714 -83.5388 59.8417 -54.4074 0.0000 -0.0000 -11.0682 -33.3640 6.0176 -3.9489 7.1250 -0.0000 -0.0000 -4.8780 -22.7935 -2.6165
1.4217 30.8838 -2.2242 -180.8170 -20.2843 -165.2450 0.0000 0.0000 0.0000 -25.0883 -9.3750 -53.0428 11.6420 18.2352 64.8496 2.0017 -12.8476 -25.6397 0.0208 0.9319 2.5615 0.0000 0.0000 0.0000 16.9058 4.1187 -23.0916 -1.5168 -7.7774 22.0400 1.3520 -20.1447 -9.7390 -0.6114 -5.0045 13.9215 -6.3851 -2.3770 9.2365 0.1280 -3.8871 1.1036 4.1812 -1.8773 -3.5937 -10.1421 1.8337 -18.8885 2.2517 2.6477 37.3829 2.9926 -1.0244 16.4294 -0.0000 -0.0000 0.0000 -89.3657 -41.6674 55.9617 65.5900 -57.6243 -39.0289 -0.0000 0.0000 -14.5709 30.4871 35.3465 18.8088 -7.1250 0.0000 -0.0000 -4.1164 69.3957 -2.4059 -0.0000 -0.0000 0.0000 78.1630 11.8112 22.6452 -82.3546 59.7780 -53.3838 0.0000 -0.0000 -11.1080 -33.1856 6.1031 -3.9776 7.1250 -0.0000 -0.0000 -4.7399 -22.7063 -2.5514
1.4088 30.9266 -2.2353 -180.8040 -20.2594 -165.4310 0.0000 0.0000 0.0000 -25.1638 -9.3983 -52.3462 11.4225 18.1357 64.1461 2.0230 -12.5423 -25.7349 0.0209 0.9343 2.5680 0.0000 0.0000 0.0000 16.9918 3.8411 -23.3302 -1.6788 -8.1623 23.2080 1.1964 -18.9977 -8.9931 -0.5403 -4.7097 13.0824 -6.3459 -2.4331 9.4523 0.0054 -3.9831 1.1182 4.0546 -1.9244 -3.6994 -9.9925 1.8015 -19.1662 2.2316 2.6618 37.2040 2.9665 -0.9714 16.4071 0.0000 0.0000 0.0000 -89.2015 -41.3437 55.8103 65.1971 -57.5429 -38.6973 -0.0000 0.0000 -14.4098 30.6159 34.7536 18.6412 -7.1250 0.0000 -0.0000 -3.4608 68.8266 -1.9780 0.0000 0.0000 0.0000 78.5976 11.7333 22.7297 -81.5498 59.7285 -52.6886 0.0000 -0.0000 -11.0701 -32.9461 6.3520 -4.1011 7.1250 -0.0000 -0.0000 -4.5424 -22.4310 -2.4731
1.3936 30.9727 -2.2490 -180.7790 -20.0830 -165.5670 0.0000 0.0000 0.0000 -25.2677 -9.2365 -51.7207 11.2013 18.0322 63.4335 2.0369 -12.3284 -25.7974 0.0236 0.9926 2.7283 0.0000 0.0000 0.0000 17.0973 3.4994 -23.6929 -1.8511 -8.5488 24.3939 1.0321 -17.6725 -7.8524 -0.3937 -4.0289 11.1579 -6.5631 -2.4232 9.4694 0.0735 -3.9908 1.1237 4.2486 -1.9256 -3.6825 -10.0506 1.7150 -19.2657 2.1189 2.6779 36.9089 2.9296 -0.9548 16.2842 0.0000 -0.0000 0.0000 -89.4437 -40.9845 55.7052 64.7835 -57.4554 -38.3485 -0.0000 0.0000 -14.2318 31.0315 33.8585 18.5303 -7.1250 0.0000 -0.0000 -2.2251 68.0278 -1.2312 0.0000 -0.0000 0.0000 78.6380 11.6922 22.7559 -80.6299 59.6656 -51.8943 0.0000 -0.0000 -11.3632 -32.5542 6.8403 -4.3481 7.1250 -0.0000 -0.0000 -4.2135 -21.8881 -2.3452
1.3768 31.0145 -2.2621 -180.7510 -19.8161 -165.6270 0.0000 0.0000 0.0000 -25.3656 -9.0538 -51.2141 10.9838 17.9271 62.7289 2.0414 -12.0791 -25.7999 0.0230 0.9780 2.6884 0.0000 0.0000 0.0000 17.1655 3.3441 -24.1222 -2.0299 -8.9281 25.5708 0.8734 -16.2868 -6.6665 -0.1840 -2.7624 7.6181 -6.6721 -2.3626 9.4965 0.0613 -3.9246 1.0210 4.2951 -1.8824 -3.8068 -10.0749 1.6159 -19.1998 2.1272 2.5677 36.6535 2.9141 -0.9753 16.1482 0.0000 0.0000 0.0000 -89.5954 -40.5109 55.7029 64.5127 -57.3972 -38.1202 -0.0000 0.0000 -14.1056 31.2175 33.5256 18.5064 -7.1250 0.0000 -0.0000 -1.7422 67.7371 -0.9524 0.0000 0.0000 0.0000 78.8135 11.3107 22.7332 -80.1139 59.6275 -51.4491 0.0000 -0.0000 -11.6730 -32.2097 7.4520 -4.6709 7.1250 -0.0000 -0.0000 -3.9092 -21.2005 -2.2361
1.3610 31.0568 -2.2753 -180.6970 -19.4855 -165.7100 0.0000 0.0000 0.0000 -25.4383 -8.8241 -50.7607 10.7671 17.8192 62.0228 2.0452 -11.7030 -25.7892 0.0150 0.7915 2.1753 0.0000 0.0000 0.0000 17.1407 3.5511 -24.4632 -2.2203 -9.3107 26.7721 0.7289 -14.9272 -6.1900 -0.0835 -1.8642 5.1304 -6.7219 -2.2678 9.5352 -0.0045 -3.8117 0.9257 4.2476 -1.8174 -3.9434 -9.9193 1.5366 -19.1290 2.0173 2.4687 36.3810 2.8181 -0.9812 16.0085 0.0000 0.0000 0.0000 -89.6308 -39.9560 55.7330 64.2913 -57.3491 -37.9338 -0.0000 0.0000 -13.8824 31.1880 33.1177 18.3007 -7.1250 0.0000 -0.0000 -1.5239 67.3009 -0.8179 0.0000 0.0000 0.0000 79.0791 11.0435 22.7014 -79.2730 59.5607 -50.7239 0.0000 -0.0000 -11.8348 -31.8474 7.9764 -4.9266 7.1250 -0.0000 -0.0000 -3.6016 -20.6215 -2.1065
1.3452 31.1031 -2.2901 -180.6880 -19.2403 -165.8220 0.0000 0.0000 0.0000 -25.5412 -8.6653 -50.2012 10.5470 17.7062 61.3016 2.0552 -11.3611 -25.8236 0.0098 0.6409 1.7611 0.0000 0.0000 0.0000 17.0828 3.7018 -24.7279 -2.4217 -9.6942 27.9919 0.5998 -13.5981 -6.0255 -0.0563 -1.5318 4.2133 -6.7530 -2.2281 9.5270 -0.1137 -3.7695 0.8988 4.1466 -1.7954 -3.9778 -9.8228 1.4630 -19.1284 2.0880 2.3404 36.1628 2.8083 -0.9848 15.9086 0.0000 0.0000 0.0000 -89.6149 -39.4678 55.6875 64.0289 -57.2913 -37.7129 -0.0000 0.0000 -13.6327 31.2764 32.8464 18.2356 -7.1250 0.0000 -0.0000 -1.2354 67.0426 -0.6557 0.0000 0.0000 0.0000 79.3624 11.2837 22.7512 -77.3468 59.3863 -49.0646 0.0000 -0.0000 -11.8552 -31.6992 8.2702 -5.0765 7.1250 -0.0000 -0.0000 -3.4691 -20.2937 -2.0543
